<?xml version="1.0" encoding="utf-8"?>
<!-- Generator: Adobe Illustrator 24.1.2, SVG Export Plug-In . SVG Version: 6.00 Build 0)  -->
<svg version="1.1" id="Capa_1" xmlns="http://www.w3.org/2000/svg" xmlns:xlink="http://www.w3.org/1999/xlink" x="0px" y="0px"
	 viewBox="0 0 160 160" style="enable-background:new 0 0 160 160;" xml:space="preserve">
<path d="M155.9,137.6c-8.5,1-15.3,1.3-20.3,1.4c-1.3,0-5.2,0-10.2-0.1c-3.5-0.1-6.7-0.3-10.1-0.5s-6.9-0.5-10.4-0.8l-0.4,0.4
	c-2.7,2.3-5.6,4.4-8.6,6.3c-3,1.9-6.1,3.6-9.3,5.1c-3.2,1.5-6.5,2.8-9.9,3.8c-6.8,2.1-13.9,3.1-21,2.9c-7.1-0.2-14.2-1.8-20.7-4.6
	c-1.8-0.8-3.6-1.7-5.3-2.6c-1.8,2.4-3.7,4.6-5.7,6.8c-1.1,1.4-3,1.6-4.4,0.5c-1.4-1.1-1.6-3-0.5-4.4c1.5-2.3,2.9-4.7,4.3-7.1
	c-2-1.5-4-3.2-5.8-4.9l-1.8-1.8l-1.8-1.9c-1.2-1.3-2.4-2.8-3.4-4.3c-0.6-0.9-1.1-1.9-1.5-2.9c-0.2-0.7-0.4-1.3-0.4-2
	c-0.1-0.9,0.1-1.8,0.5-2.6c0.4-0.8,1-1.5,1.7-2.1c0.6-0.4,1.2-0.8,1.8-1c1-0.4,2.1-0.6,3.1-0.7c1.8-0.2,3.7-0.2,5.5-0.1
	c1.8,0,3.5,0.2,5.2,0.4c2.8,0.3,5.5,0.6,8.2,1c0.8-1.9,1.6-3.7,2.4-5.6c5.1-12.4,9.8-25.1,14.6-37.8s9.5-25.5,15-38.1
	c2.7-6.3,5.7-12.5,8.9-18.7c0.6-1.1,1.2-2.1,1.8-3.2l-1.8-0.7c-5.7-2.3-11.8-3.8-18-4.2c-1.5-0.1-3.1-0.1-4.7-0.1
	c-1.6,0-3.2,0-4.7,0.2c-3.1,0.2-6.2,0.7-9.2,1.5c-6,1.4-11.6,4.3-16.3,8.3c-2.3,2-4.4,4.4-6.1,6.9c-1.7,2.6-3.1,5.4-4.2,8.3
	c-1.1,2.9-1.8,5.9-2,8.9c-0.3,3,0,5.9,0.9,8.8c0.4,1.3,1,2.5,1.7,3.6c0.7,1.1,1.6,2.1,2.6,2.9c2.1,1.7,4.6,2.8,7.3,3
	c2.8,0.4,5.6,0.1,8.2-0.8c2.6-0.9,5.1-2.4,7.2-4.2c4.3-3.9,7.5-8.9,9.4-14.4c1.1-3.3,4.6-5,7.9-4c3.3,1.1,5,4.6,4,7.9
	c-0.1,0.4-0.3,0.8-0.5,1.2v0.1c-0.9,1.6-2,3.2-3.1,4.8c-1.1,1.5-2.2,3-3.5,4.4c-2.5,2.9-5.3,5.4-8.5,7.6c-3.2,2.2-6.8,3.8-10.6,4.8
	c-1.9,0.4-3.9,0.7-5.8,0.7c-2,0-3.9-0.2-5.8-0.6c-4-0.7-7.7-2.6-10.7-5.3c-1.5-1.4-2.7-3-3.7-4.7c-1-1.7-1.7-3.5-2.3-5.4
	c-1-3.6-1.3-7.4-0.9-11.1c0.4-3.6,1.2-7.1,2.5-10.5c1.2-3.4,2.8-6.6,4.8-9.6c2-3,4.3-5.8,6.9-8.3c2.7-2.5,5.6-4.6,8.8-6.4
	c3.1-1.8,6.5-3.2,9.9-4.3c3.4-1.1,6.9-1.9,10.4-2.4c1.8-0.3,3.5-0.5,5.3-0.6s3.5-0.2,5.3-0.2C65,4.2,72.2,5.3,79,7.5
	c1.3,0.4,2.5,0.8,3.7,1.3c1.2-1.8,2.4-3.6,3.6-5.4c1-1.4,3-1.7,4.4-0.7c1.2,0.9,1.6,2.4,1,3.7c-0.8,1.7-1.5,3.5-2.2,5.2
	c1.5,0.7,2.9,1.5,4.3,2.3s3.1,1.9,4.6,2.9c6,4,11.4,8.9,16.1,14.4c4.7,5.6,8.5,11.8,11.4,18.4c2.9,6.7,4.8,13.7,5.7,21
	c0.8,7.2,0.6,14.5-0.6,21.6c-0.6,3.5-1.4,7-2.5,10.4c-1,3.5-2.4,6.9-4,10.1c-3.2,6.4-7.3,12.3-12.2,17.5l-1.6,1.7
	c1.7,0.1,3.4,0.3,5.1,0.4c3.3,0.2,6.6,0.4,9.9,0.5c3.3,0.1,6.6,0.1,9.9,0.1c0,0,2.5,0,5.2-0.2c2.9-0.1,8-0.5,14.5-1.2
	c1.3,0.2,2.3,1.2,2.5,2.4C158.2,135.6,157.4,137.1,155.9,137.6z M25.3,139.1c2-3.9,4-7.9,5.8-12c-2.1-0.3-4.2-0.5-6.3-0.8
	c-1.6-0.1-3.2-0.3-4.8-0.3c-1.5-0.1-3,0-4.5,0.1c-0.6,0.1-1.2,0.2-1.8,0.4l-0.2,0.1c0,0.1,0,0.1,0,0.2c0.2,0.6,0.5,1.1,0.8,1.6
	c1.8,2.5,3.9,4.8,6.2,6.9C22.1,136.6,23.7,137.9,25.3,139.1z M91,136.2c-5.6-0.7-11.2-1.4-16.7-2.3c-10.9-1.6-21.8-3.5-32.7-5.2
	c-1.9,3.4-3.8,6.8-5.9,10.1c-1,1.6-2.1,3.2-3.2,4.8c1.3,0.7,2.7,1.3,4.1,1.9c2.9,1.2,5.9,2.1,9,2.6c3.1,0.6,6.2,0.9,9.3,0.8
	c6.3-0.1,12.5-1.2,18.4-3.3c3-1.1,5.9-2.3,8.6-3.8c2.8-1.5,5.5-3.1,8.1-5L91,136.2z M45.9,120.5c-0.5,0.9-0.9,1.8-1.4,2.7
	c3.6,0.6,7.3,1.2,10.9,1.8c6.6,1.1,13.2,2.1,19.8,3.1c7.4,1.1,14.7,2.1,22.1,2.9c2.4-2.2,4.6-4.5,6.7-7c4-4.8,7.3-10.1,9.8-15.7
	c0.6-1.5,1.2-2.8,1.7-4.3c0.3-0.7,0.5-1.5,0.7-2.2s0.4-1.5,0.6-2.2c0.8-3,1.4-6.1,1.8-9.1c0.8-6.1,0.8-12.3,0-18.4
	c-0.8-6.1-2.5-12-5-17.5c-1.2-2.8-2.6-5.5-4.2-8.1c-1.6-2.6-3.4-5.1-5.3-7.5c-3.9-4.8-8.4-9.1-13.3-12.7c-2-1.5-4.2-2.9-6.3-4.2
	c-2.8,7.3-5.5,14.6-8.2,21.9c-4.6,12.7-9.1,25.5-14,38.3S52.1,108.1,45.9,120.5z M-38-34.1"/>
</svg>
