<?xml version="1.0" encoding="utf-8"?>
<!-- Generator: Adobe Illustrator 24.1.2, SVG Export Plug-In . SVG Version: 6.00 Build 0)  -->
<svg version="1.1" id="Capa_1" xmlns="http://www.w3.org/2000/svg" xmlns:xlink="http://www.w3.org/1999/xlink" x="0px" y="0px"
	 viewBox="0 0 588.5 109.1" style="enable-background:new 0 0 588.5 109.1;" xml:space="preserve">
<style type="text/css">
	.st0{fill:url(#SVGID_1_);}
	.st1{fill:url(#SVGID_2_);}
	.st2{fill:url(#SVGID_3_);}
	.st3{fill:url(#SVGID_4_);}
	.st4{fill:url(#SVGID_5_);}
	.st5{fill:url(#SVGID_6_);}
	.st6{fill:url(#SVGID_7_);}
</style>
<linearGradient id="SVGID_1_" gradientUnits="userSpaceOnUse" x1="37.261" y1="38.0642" x2="194.2122" y2="38.0642" gradientTransform="matrix(1 0 0 -1 -36.07 92.5771)">
	<stop  offset="0" style="stop-color:#B38A3B"/>
	<stop  offset="6.000000e-02" style="stop-color:#CCAD64"/>
	<stop  offset="0.14" style="stop-color:#EFDF9F"/>
	<stop  offset="0.18" style="stop-color:#FDF3B6"/>
	<stop  offset="0.41" style="stop-color:#B79862"/>
	<stop  offset="0.49" style="stop-color:#C5A55B"/>
	<stop  offset="0.62" style="stop-color:#D9B852"/>
	<stop  offset="0.66" style="stop-color:#DFC364"/>
	<stop  offset="0.8" style="stop-color:#F5E59F"/>
	<stop  offset="0.87" style="stop-color:#FDF3B6"/>
	<stop  offset="0.89" style="stop-color:#EDDC9B"/>
	<stop  offset="0.92" style="stop-color:#D4B972"/>
	<stop  offset="0.95" style="stop-color:#C29F54"/>
	<stop  offset="0.98" style="stop-color:#B79042"/>
	<stop  offset="1" style="stop-color:#B38A3B"/>
</linearGradient>
<path class="st0" d="M157.4,75.5L157.4,75.5c-3.7,3-7.7,5.5-12,7.6c-2.1,1-4.2,2-6.4,2.9c-2.2,0.9-4.4,1.7-6.6,2.4
	c-8.8,2.9-17.9,4.9-27.2,5.9c-4.6,0.5-9.2,0.9-13.9,0.9c-2.3,0-4.6,0-7-0.1s-4.6-0.2-6.9-0.4s-4.8-0.3-7.1-0.6l-0.3,0.3
	c-1.9,1.6-3.8,3-5.8,4.3c-2,1.3-4.2,2.5-6.3,3.5c-2.2,1-4.5,1.9-6.8,2.6c-4.6,1.5-9.5,2.1-14.4,2c-4.9-0.1-9.7-1.2-14.2-3.2
	c-1.2-0.5-2.4-1.1-3.6-1.8c-1.2,1.6-2.5,3.2-3.9,4.7c-0.7,0.9-2.1,1.1-3,0.4c-0.9-0.7-1.1-2.1-0.4-3l0,0c1-1.6,2-3.2,2.9-4.9
	c-1.4-1-2.7-2.2-4-3.3l-1.2-1.3l-1.2-1.3c-0.9-0.9-1.6-1.9-2.3-2.9c-0.4-0.6-0.7-1.3-1-2c-0.2-0.4-0.3-0.9-0.3-1.4
	c0-0.6,0.1-1.2,0.3-1.8c0.3-0.6,0.7-1,1.2-1.4c0.4-0.3,0.8-0.5,1.3-0.7c0.7-0.2,1.4-0.4,2.1-0.5c1.2-0.1,2.5-0.2,3.8-0.1
	c1.2,0,2.4,0.1,3.5,0.3c1.9,0.2,3.8,0.4,5.6,0.7c0.5-1.3,1.1-2.5,1.6-3.8c3.5-8.5,6.7-17.1,10-25.8s6.5-17.5,10.3-26.1
	c1.9-4.3,3.9-8.6,6.1-12.8c0.4-0.7,0.8-1.5,1.2-2.2l-1.2-0.5c-3.9-1.6-8.1-2.6-12.3-2.9c-1-0.1-2.1-0.1-3.2-0.1s-2.2,0-3.2,0.1
	c-2.1,0.2-4.2,0.5-6.3,1c-4.1,1-8,2.9-11.2,5.7c-1.6,1.4-3,3-4.2,4.7c-1.2,1.8-2.1,3.7-2.9,5.7c-0.7,2-1.2,4-1.4,6.1
	c-0.2,2,0,4.1,0.6,6c0.3,0.9,0.7,1.7,1.2,2.5c0.5,0.7,1.1,1.4,1.8,2c1.4,1.2,3.2,1.9,5,2.1c1.9,0.3,3.8,0.1,5.6-0.5
	c1.8-0.6,3.5-1.6,4.9-2.9c3-2.7,5.2-6.1,6.4-9.8c0.7-2.2,3.2-3.5,5.4-2.7c2.2,0.7,3.5,3.2,2.7,5.4c-0.1,0.3-0.2,0.5-0.3,0.8v0.1
	c-0.6,1.1-1.4,2.2-2.1,3.3c-0.7,1-1.5,2-2.4,3c-1.7,2-3.7,3.7-5.8,5.2c-2.2,1.5-4.7,2.6-7.3,3.3c-1.3,0.3-2.7,0.5-4,0.5
	c-1.3,0-2.7-0.1-4-0.4c-2.7-0.5-5.2-1.8-7.3-3.6c-1-0.9-1.9-2-2.6-3.2c-0.7-1.2-1.2-2.4-1.5-3.7C1.2,37.1,1,34.5,1.3,32
	c0.3-2.5,0.8-4.9,1.7-7.2c0.8-2.3,1.9-4.5,3.3-6.6c1.3-2.1,2.9-4,4.8-5.7c1.8-1.7,3.8-3.1,6-4.4C19.2,7,21.5,6,23.8,5.2
	c2.3-0.7,4.7-1.3,7.1-1.6c1.2-0.2,2.4-0.3,3.6-0.4s2.4-0.1,3.6-0.2c4.9,0,9.8,0.7,14.5,2.2c0.9,0.3,1.7,0.6,2.6,0.9
	c0.8-1.2,1.6-2.5,2.5-3.7c0.7-1,2-1.2,3-0.4c0.8,0.6,1.1,1.6,0.7,2.6l0,0c-0.5,1.2-1,2.4-1.5,3.6c1,0.5,2,1,2.9,1.5s2.1,1.3,3.1,2
	c4.1,2.8,7.8,6.1,11,9.9c3.2,3.8,5.8,8,7.8,12.6c2,4.6,3.3,9.4,3.9,14.3c0.6,4.9,0.4,9.9-0.4,14.8c-0.4,2.4-1,4.8-1.7,7.1
	c-0.7,2.4-1.6,4.7-2.8,6.9c-2.2,4.4-5,8.4-8.4,12l-1.1,1.1c1.2,0.1,2.3,0.2,3.5,0.3c2.3,0.2,4.5,0.3,6.8,0.3s4.5,0.1,6.8,0.1
	c4.5-0.1,9-0.4,13.5-0.9c9-1,17.8-3,26.3-5.8c2.1-0.7,4.2-1.5,6.3-2.3s4.1-1.8,6.1-2.8c4-1.9,7.7-4.3,11.1-7.1l0,0
	c0.9-0.7,2.3-0.5,3,0.5C158.4,73.5,158.3,74.7,157.4,75.5L157.4,75.5z M16.7,95.3c1.4-2.7,2.7-5.4,4-8.2c-1.5-0.2-2.9-0.4-4.3-0.5
	c-1.1-0.1-2.2-0.2-3.3-0.2c-1,0-2.1,0-3.1,0.1c-0.4,0-0.8,0.1-1.2,0.3l-0.1,0.1c0,0,0,0.1,0,0.1c0.1,0.4,0.3,0.7,0.6,1.1
	c1.2,1.7,2.7,3.3,4.3,4.7C14.5,93.6,15.6,94.5,16.7,95.3z M61.6,93.3c-3.8-0.5-7.6-1-11.4-1.6c-7.5-1.1-14.9-2.4-22.3-3.6
	c-1.3,2.3-2.6,4.6-4.1,6.9c-0.7,1.1-1.4,2.2-2.2,3.3c0.9,0.5,1.8,0.9,2.8,1.3c2,0.8,4,1.4,6.2,1.8c2.1,0.4,4.2,0.6,6.4,0.6
	c4.3-0.1,8.6-0.8,12.6-2.3c2-0.7,4-1.6,5.9-2.6c1.9-1,3.7-2.2,5.5-3.4L61.6,93.3z M30.7,82.6c-0.3,0.6-0.6,1.3-0.9,1.9
	c2.5,0.4,5,0.8,7.4,1.2c4.5,0.8,9,1.5,13.5,2.1c5,0.8,10.1,1.4,15.1,2c1.6-1.5,3.1-3.1,4.6-4.8c2.7-3.3,5-6.9,6.7-10.8
	c0.4-1,0.8-1.9,1.2-2.9c0.2-0.5,0.3-1,0.5-1.5s0.3-1,0.4-1.5c0.5-2.1,0.9-4.1,1.2-6.2c0.6-4.2,0.6-8.4,0-12.6
	c-0.6-4.1-1.7-8.2-3.4-12c-0.8-1.9-1.8-3.7-2.9-5.5c-1.1-1.8-2.3-3.5-3.7-5.1c-2.7-3.3-5.7-6.2-9.1-8.7c-1.4-1-2.8-2-4.3-2.9
	c-1.9,5-3.8,10-5.6,15c-3.1,8.7-6.2,17.5-9.6,26.2S34.9,74.1,30.7,82.6z"/>
<linearGradient id="SVGID_2_" gradientUnits="userSpaceOnUse" x1="189.9439" y1="14.1222" x2="283.8139" y2="14.1222" gradientTransform="matrix(1 0 0 -1 -36.07 92.5771)">
	<stop  offset="0" style="stop-color:#B38A3B"/>
	<stop  offset="6.000000e-02" style="stop-color:#CCAD64"/>
	<stop  offset="0.14" style="stop-color:#EFDF9F"/>
	<stop  offset="0.18" style="stop-color:#FDF3B6"/>
	<stop  offset="0.41" style="stop-color:#B79862"/>
	<stop  offset="0.49" style="stop-color:#C5A55B"/>
	<stop  offset="0.62" style="stop-color:#D9B852"/>
	<stop  offset="0.66" style="stop-color:#DFC364"/>
	<stop  offset="0.8" style="stop-color:#F5E59F"/>
	<stop  offset="0.87" style="stop-color:#FDF3B6"/>
	<stop  offset="0.89" style="stop-color:#EDDC9B"/>
	<stop  offset="0.92" style="stop-color:#D4B972"/>
	<stop  offset="0.95" style="stop-color:#C29F54"/>
	<stop  offset="0.98" style="stop-color:#B79042"/>
	<stop  offset="1" style="stop-color:#B38A3B"/>
</linearGradient>
<path class="st1" d="M246.9,76.4L246.9,76.4c-5.3,3.7-10.8,6.9-16.5,9.5c-2.9,1.3-5.8,2.6-8.7,3.7s-5.9,2.1-8.9,3s-6.1,1.7-9.1,2.3
	s-6.2,1.2-9.3,1.6s-6.3,0.6-9.5,0.7c-1.6,0.1-3.2,0.1-4.8,0s-3.2-0.1-4.9-0.3c-3.4-0.3-6.7-1-9.9-2.2c-1.7-0.7-3.3-1.6-4.8-2.7
	c-1.6-1.2-2.9-2.6-4-4.3c-0.6-0.9-1-1.8-1.4-2.7c-0.2-0.5-0.4-1-0.5-1.4c-0.1-0.3-0.1-0.5-0.2-0.7l-0.1-0.4l-0.1-0.3
	c-0.3-1.9-0.4-3.8-0.2-5.7c0.2-1.9,0.7-3.8,1.5-5.6c0.4-0.9,0.8-1.7,1.3-2.5c0.5-0.8,1-1.6,1.6-2.3c1.2-1.4,2.5-2.7,4.1-3.8
	c0.8-0.5,1.6-1,2.4-1.4c1-0.5,2-0.9,3-1.1c0.3-0.1,0.7-0.1,1-0.2h0.6h0.5c0.6,0,1.3,0.1,1.9,0.3c2.8,0.7,4.9,3,5.4,5.9
	c0.2,1.3,0.1,2.6-0.3,3.8c-0.1,0.3-0.2,0.5-0.3,0.8s-0.2,0.5-0.3,0.7c-0.2,0.4-0.5,0.9-0.8,1.3c-1.6,2.6-4.1,4.5-6.9,5.4
	c-1.8,0.6-3.7,0.8-5.6,0.7c-0.5,0-1.1-0.1-1.6-0.2c0,0.9,0.1,1.7,0.2,2.5c0.2,1.1,0.5,2.1,1.1,3c1.3,2,3.1,3.7,5.3,4.8
	c2.5,1.3,5.1,2.4,7.9,3c1.4,0.3,2.9,0.6,4.3,0.8s3,0.3,4.5,0.4c3,0.1,6,0,9-0.3c3-0.3,6-0.7,9-1.3c3-0.6,5.9-1.3,8.9-2.1
	s5.8-1.8,8.7-2.8s5.7-2.3,8.4-3.6c5.5-2.6,10.7-5.8,15.4-9.5c0.9-0.7,2.3-0.6,3,0.3C247.9,74.4,247.7,75.7,246.9,76.4L246.9,76.4z
	 M164.2,70.8c-0.6,0.9-1.2,1.8-1.6,2.8c0.2,0,0.4,0,0.6,0c1.2-0.1,2.4-0.4,3.5-0.9c1-0.5,1.9-1.2,2.6-2c0.3-0.4,0.6-0.9,0.9-1.4
	c0.1-0.2,0.2-0.5,0.3-0.7s0.1-0.2,0.1-0.4c0-0.1,0.1-0.2,0.1-0.3c0.1-0.3,0.1-0.5,0-0.8c0-0.1-0.1-0.3-0.2-0.4
	c-0.1-0.1-0.2-0.1-0.4-0.2c-0.1,0-0.3,0-0.4,0h-0.1l0,0h-0.1c-0.4,0.2-0.9,0.4-1.3,0.6C166.8,68.1,165.4,69.4,164.2,70.8L164.2,70.8
	z"/>
<linearGradient id="SVGID_3_" gradientUnits="userSpaceOnUse" x1="279.0865" y1="42.0168" x2="362.1702" y2="42.0168" gradientTransform="matrix(1 0 0 -1 -36.07 92.5771)">
	<stop  offset="0" style="stop-color:#B38A3B"/>
	<stop  offset="6.000000e-02" style="stop-color:#CCAD64"/>
	<stop  offset="0.14" style="stop-color:#EFDF9F"/>
	<stop  offset="0.18" style="stop-color:#FDF3B6"/>
	<stop  offset="0.41" style="stop-color:#B79862"/>
	<stop  offset="0.49" style="stop-color:#C5A55B"/>
	<stop  offset="0.62" style="stop-color:#D9B852"/>
	<stop  offset="0.66" style="stop-color:#DFC364"/>
	<stop  offset="0.8" style="stop-color:#F5E59F"/>
	<stop  offset="0.87" style="stop-color:#FDF3B6"/>
	<stop  offset="0.89" style="stop-color:#EDDC9B"/>
	<stop  offset="0.92" style="stop-color:#D4B972"/>
	<stop  offset="0.95" style="stop-color:#C29F54"/>
	<stop  offset="0.98" style="stop-color:#B79042"/>
	<stop  offset="1" style="stop-color:#B38A3B"/>
</linearGradient>
<path class="st2" d="M325.4,76.3L325.4,76.3c-8.3,6.4-17.4,11.4-27.1,14.9c-4.9,1.7-9.9,3-15,3.9c-5.2,0.8-10.4,1-15.6,0.6
	c-1.3-0.1-2.6-0.3-3.9-0.5c-1.3-0.2-2.6-0.5-3.9-0.9c-2.7-0.7-5.2-1.8-7.6-3.3c-2.5-1.5-4.7-3.6-6.3-6.1c-0.8-1.3-1.4-2.7-1.8-4.2
	c-0.2-0.7-0.4-1.5-0.5-2.3c-0.1-0.7-0.1-1.6-0.2-2.2c-0.3-2.6-0.4-5.3-0.4-7.9c0-2.6,0.2-5.3,0.6-7.9c0.7-5.2,1.8-10.3,3.3-15.4
	c1.5-5,3.3-9.9,5.5-14.7c1.1-2.4,2.3-4.7,3.5-7c1.3-2.3,2.6-4.5,4-6.8c1.5-2.3,3.1-4.5,5-6.6c1.1-1.2,2.2-2.2,3.5-3.1
	c0.8-0.6,1.7-1,2.7-1.3c0.6-0.2,1.3-0.3,2-0.4c0.8,0,1.7,0.1,2.4,0.4c0.8,0.3,1.4,0.8,2,1.4c0.5,0.5,0.9,1,1.2,1.6
	c0.5,0.9,0.8,1.8,0.9,2.8c0.3,1.5,0.3,3.1,0.2,4.6c-0.2,2.7-0.7,5.4-1.5,8c-0.4,1.3-0.8,2.5-1.2,3.8s-0.9,2.5-1.3,3.7
	c-1,2.4-2,4.8-3.1,7.1s-2.3,4.6-3.6,6.9c-0.6,1.1-1.3,2.2-2,3.3l-2.1,3.2c-2.7,4.3-5.6,8.5-8.6,12.6c-2,2.7-4.1,5.4-6.2,8
	c-0.1,1.2-0.3,2.3-0.4,3.5c0,0.3,0,0.6,0,0.8c0,0.2,0,0.5,0,0.7c0,0.5,0.1,1,0.2,1.4c0.2,1,0.6,1.9,1,2.8c1,1.8,2.4,3.4,4.1,4.6
	c1.9,1.3,3.9,2.3,6.1,3.1c1.1,0.4,2.2,0.7,3.4,1c1.1,0.3,2.3,0.5,3.5,0.6c2.4,0.3,4.8,0.5,7.2,0.4c2.4,0,4.9-0.2,7.3-0.5
	c4.9-0.7,9.7-1.8,14.3-3.4c9.3-3.3,18-8.2,25.5-14.6c0.9-0.8,2.2-0.6,3,0.3C326.4,74.3,326.2,75.6,325.4,76.3L325.4,76.3z M252,61.7
	c-0.2,1.2-0.4,2.4-0.6,3.7c0.8-1,1.6-2,2.4-3c1.5-2,3-4,4.3-6.1s2.7-4.2,4-6.3s2.6-4.3,3.7-6.5s2.2-4.4,3.2-6.7c1-2.3,1.8-4.6,2.4-7
	c0.3-1.2,0.6-2.3,0.9-3.5s0.5-2.4,0.7-3.6c0.4-2.3,0.5-4.6,0.4-6.9c0-0.8-0.2-1.7-0.4-2.5c-0.3,0.3-0.6,0.5-0.8,0.8
	c-0.3,0.4-0.7,0.7-1,1.2c-1.4,1.8-2.7,3.7-3.9,5.7c-1.2,2-2.3,4.2-3.4,6.4s-2.1,4.4-3.1,6.6c-2,4.4-3.7,9-5.2,13.6
	C254.1,52.3,252.9,57,252,61.7z M272.5,12.4c0,0.1,0.1,0.1,0.1,0.2c0-0.1-0.1-0.2-0.2-0.3C272.4,12.3,272.4,12.3,272.5,12.4
	L272.5,12.4z"/>
<linearGradient id="SVGID_4_" gradientUnits="userSpaceOnUse" x1="359.5916" y1="20.635" x2="443.8016" y2="20.635" gradientTransform="matrix(1 0 0 -1 -36.07 92.5771)">
	<stop  offset="0" style="stop-color:#B38A3B"/>
	<stop  offset="6.000000e-02" style="stop-color:#CCAD64"/>
	<stop  offset="0.14" style="stop-color:#EFDF9F"/>
	<stop  offset="0.18" style="stop-color:#FDF3B6"/>
	<stop  offset="0.41" style="stop-color:#B79862"/>
	<stop  offset="0.49" style="stop-color:#C5A55B"/>
	<stop  offset="0.62" style="stop-color:#D9B852"/>
	<stop  offset="0.66" style="stop-color:#DFC364"/>
	<stop  offset="0.8" style="stop-color:#F5E59F"/>
	<stop  offset="0.87" style="stop-color:#FDF3B6"/>
	<stop  offset="0.89" style="stop-color:#EDDC9B"/>
	<stop  offset="0.92" style="stop-color:#D4B972"/>
	<stop  offset="0.95" style="stop-color:#C29F54"/>
	<stop  offset="0.98" style="stop-color:#B79042"/>
	<stop  offset="1" style="stop-color:#B38A3B"/>
</linearGradient>
<path class="st3" d="M406.7,76.6l-0.1,0.1c-7.7,3.4-15.7,6.4-23.8,9c-2,0.6-4,1.3-6.1,1.8s-4.1,1.1-6.1,1.7c-4.1,1-8.2,2-12.4,2.7
	c-2.1,0.4-4.2,0.7-6.3,1s-4.3,0.5-6.4,0.7c-2.2,0.2-4.4,0.2-6.6,0.1c-2.4-0.1-4.7-0.4-7-1.2c-0.6-0.2-1.3-0.5-1.9-0.8
	c-0.3-0.2-0.6-0.4-1-0.6s-0.6-0.5-0.9-0.7c-1.2-1-2.1-2.2-2.7-3.7c-0.6-1.3-0.9-2.8-1-4.3c-0.1-1.3,0-2.6,0.2-3.9
	c0.1-0.5,0.2-0.9,0.3-1.3c-0.2-0.1-0.4-0.3-0.5-0.5c-1.1-1.3-1.2-3.2-0.2-4.5l0,0l1.4-1.8l1.4-1.8c0.9-1.2,1.9-2.4,2.8-3.6
	c1.4-1.8,4-2.2,5.8-0.8c1.2,0.9,1.8,2.3,1.6,3.8v0.4c-0.1,0.5-0.2,1.1-0.3,1.6c-0.1,0.4-0.2,0.7-0.3,1c-0.2,0.6-0.5,1.1-0.7,1.6
	l-0.6,1.4l-0.7,1.3c-0.5,0.9-0.9,1.7-1.3,2.6s-0.7,1.7-1,2.5c-0.5,1.3-0.8,2.8-0.7,4.2c0.1,0.6,0.3,1.1,0.6,1.6
	c0.1,0.1,0.2,0.2,0.3,0.3c0.1,0.1,0.2,0.2,0.4,0.3c0.3,0.2,0.6,0.4,1,0.6c1.7,0.7,3.5,1.1,5.3,1.3c2,0.2,4,0.3,6,0.3
	c4.1,0,8.2-0.4,12.3-1c4.1-0.6,8.1-1.4,12.2-2.3c2-0.5,4-1,6-1.5s4-1.1,6-1.8c7.9-2.5,15.6-5.6,23-9.4l0,0c1-0.5,2.3-0.1,2.9,0.9
	C408.2,74.8,407.8,76.1,406.7,76.6L406.7,76.6L406.7,76.6z M334.3,61.1c-1.4-1.9-1-4.5,0.9-5.9c0.5-0.7,0.9-1.4,1.2-2.2
	c0.8-2.2,3.2-3.3,5.4-2.5c2.2,0.8,3.3,3.2,2.5,5.4c0,0.1-0.1,0.2-0.1,0.3c-0.8,2.3-2.2,4.4-4.1,5.9C338.3,63.5,335.7,63,334.3,61.1
	L334.3,61.1z"/>
<linearGradient id="SVGID_5_" gradientUnits="userSpaceOnUse" x1="439.287" y1="13.6963" x2="532.697" y2="13.6963" gradientTransform="matrix(1 0 0 -1 -36.07 92.5771)">
	<stop  offset="0" style="stop-color:#B38A3B"/>
	<stop  offset="6.000000e-02" style="stop-color:#CCAD64"/>
	<stop  offset="0.14" style="stop-color:#EFDF9F"/>
	<stop  offset="0.18" style="stop-color:#FDF3B6"/>
	<stop  offset="0.41" style="stop-color:#B79862"/>
	<stop  offset="0.49" style="stop-color:#C5A55B"/>
	<stop  offset="0.62" style="stop-color:#D9B852"/>
	<stop  offset="0.66" style="stop-color:#DFC364"/>
	<stop  offset="0.8" style="stop-color:#F5E59F"/>
	<stop  offset="0.87" style="stop-color:#FDF3B6"/>
	<stop  offset="0.89" style="stop-color:#EDDC9B"/>
	<stop  offset="0.92" style="stop-color:#D4B972"/>
	<stop  offset="0.95" style="stop-color:#C29F54"/>
	<stop  offset="0.98" style="stop-color:#B79042"/>
	<stop  offset="1" style="stop-color:#B38A3B"/>
</linearGradient>
<path class="st4" d="M496.2,75.9L496.2,75.9L496.2,75.9c-1,1.2-2.1,2.3-3.2,3.2c-1.1,0.9-2.3,1.7-3.5,2.5c-2.4,1.5-4.8,2.8-7.3,4
	c-2.5,1.2-5,2.2-7.6,3.2s-5.2,1.8-7.8,2.6c-5.2,1.6-10.6,2.8-16,3.8c-2.7,0.5-5.4,0.9-8.1,1.2s-5.5,0.5-8.2,0.6s-5.6,0.1-8.4,0
	c-2.9-0.1-5.7-0.5-8.5-1.2c-1.5-0.4-2.9-0.9-4.3-1.5c-1.5-0.6-2.9-1.5-4.1-2.5c-1.4-1.1-2.5-2.4-3.5-3.8c-1-1.5-1.6-3.2-2-4.9
	c-0.3-1.7-0.4-3.4-0.3-5.2c0.2-1.7,0.6-3.4,1.2-5c0.3-0.8,0.7-1.5,1.1-2.2c0.4-0.7,0.8-1.4,1.3-2c0.9-1.3,2-2.5,3.2-3.5
	c1.2-1.1,2.5-2,3.9-2.7c1.5-0.9,3.2-1.4,5-1.7c1.1-0.1,2.2,0,3.3,0.3c0.6,0.2,1.2,0.6,1.7,1c0.5,0.4,1,1,1.3,1.6
	c0.5,1,0.8,2.2,0.7,3.3c-0.1,0.9-0.3,1.8-0.7,2.7c-0.5,1.1-1.8,1.5-2.8,1c-0.8-0.4-1.3-1.3-1.2-2.2v-0.2c0.1-0.4,0-0.9-0.1-1.3
	c-0.1-0.3-0.2-0.6-0.3-0.6s0,0.1-0.1,0.2s-0.4,0.1-0.7,0.2c-0.4,0.1-0.8,0.3-1.2,0.6c-0.4,0.2-0.9,0.5-1.3,0.8
	c-0.9,0.7-1.7,1.4-2.4,2.2c-0.7,0.8-1.4,1.7-2,2.6c-0.6,0.9-1.1,1.9-1.5,2.8c-0.4,0.9-0.6,1.9-0.8,2.9c0,0.2-0.1,0.5-0.1,0.7
	s0,0.2,0,0.3v0.4c0,2.4,1,4.7,2.8,6.3c1.7,1.5,3.7,2.7,5.8,3.4c2.4,0.9,4.8,1.5,7.3,1.9c2.6,0.4,5.2,0.6,7.8,0.7
	c2.6,0,5.3-0.1,7.9-0.3s5.3-0.5,7.9-0.9s5.2-0.9,7.8-1.5s5.2-1.2,7.7-2s5.1-1.6,7.6-2.5s4.9-2,7.3-3.1c2.4-1.1,4.6-2.4,6.8-3.9
	c1-0.7,2-1.5,3-2.3c0.9-0.8,1.7-1.7,2.4-2.6c0.8-0.9,2.1-0.9,3-0.1C496.5,74,496.7,75.1,496.2,75.9z"/>
<linearGradient id="SVGID_6_" gradientUnits="userSpaceOnUse" x1="528.3439" y1="14.1222" x2="622.2239" y2="14.1222" gradientTransform="matrix(1 0 0 -1 -36.07 92.5771)">
	<stop  offset="0" style="stop-color:#B38A3B"/>
	<stop  offset="6.000000e-02" style="stop-color:#CCAD64"/>
	<stop  offset="0.14" style="stop-color:#EFDF9F"/>
	<stop  offset="0.18" style="stop-color:#FDF3B6"/>
	<stop  offset="0.41" style="stop-color:#B79862"/>
	<stop  offset="0.49" style="stop-color:#C5A55B"/>
	<stop  offset="0.62" style="stop-color:#D9B852"/>
	<stop  offset="0.66" style="stop-color:#DFC364"/>
	<stop  offset="0.8" style="stop-color:#F5E59F"/>
	<stop  offset="0.87" style="stop-color:#FDF3B6"/>
	<stop  offset="0.89" style="stop-color:#EDDC9B"/>
	<stop  offset="0.92" style="stop-color:#D4B972"/>
	<stop  offset="0.95" style="stop-color:#C29F54"/>
	<stop  offset="0.98" style="stop-color:#B79042"/>
	<stop  offset="1" style="stop-color:#B38A3B"/>
</linearGradient>
<path class="st5" d="M585.3,76.4L585.3,76.4c-5.3,3.7-10.8,6.9-16.5,9.5c-2.9,1.3-5.8,2.6-8.7,3.7s-5.9,2.1-8.9,3s-6.1,1.7-9.2,2.3
	s-6.2,1.2-9.3,1.6s-6.3,0.6-9.5,0.7c-1.6,0.1-3.2,0.1-4.8,0s-3.2-0.1-4.9-0.3c-3.4-0.3-6.7-1-9.9-2.2c-1.7-0.7-3.3-1.6-4.8-2.7
	c-1.6-1.2-2.9-2.6-4-4.3c-0.6-0.9-1-1.8-1.4-2.7c-0.2-0.5-0.3-1-0.5-1.4c-0.1-0.3-0.1-0.5-0.2-0.7l-0.1-0.4l-0.1-0.3
	c-0.3-1.9-0.4-3.8-0.2-5.7c0.2-1.9,0.7-3.8,1.5-5.6c0.4-0.9,0.8-1.7,1.3-2.5c0.5-0.8,1-1.6,1.6-2.3c1.2-1.4,2.6-2.7,4.1-3.8
	c0.8-0.5,1.6-1,2.4-1.4c1-0.5,2-0.9,3-1.1c0.3-0.1,0.7-0.1,1-0.2h0.6h0.5c0.6,0,1.3,0.1,1.9,0.3c2.8,0.7,4.9,3,5.4,5.9
	c0.2,1.3,0.1,2.6-0.3,3.8c-0.1,0.3-0.2,0.5-0.3,0.8s-0.2,0.5-0.3,0.7c-0.2,0.4-0.5,0.9-0.7,1.3c-0.5,0.9-1.2,1.6-1.9,2.3
	c-1.4,1.4-3.1,2.4-5,3.1c-1.8,0.6-3.7,0.8-5.6,0.7c-0.5,0-1.1-0.1-1.6-0.2c0,0.9,0.1,1.7,0.2,2.5c0.2,1.1,0.5,2.1,1.1,3
	c1.3,2,3.1,3.7,5.3,4.8c2.5,1.3,5.1,2.4,7.9,3c1.4,0.3,2.9,0.6,4.3,0.8s3,0.3,4.5,0.4c3,0.1,6,0,9-0.3c3-0.3,6-0.7,9-1.3
	s6-1.3,8.9-2.1s5.8-1.8,8.7-2.8s5.7-2.3,8.4-3.6c5.5-2.6,10.7-5.8,15.4-9.5c0.9-0.7,2.3-0.6,3,0.3C586.3,74.4,586.2,75.7,585.3,76.4
	L585.3,76.4z M502.6,70.8c-0.6,0.9-1.2,1.8-1.6,2.8c0.2,0,0.4,0,0.6,0c1.2-0.1,2.4-0.4,3.5-0.9c1-0.5,1.9-1.2,2.6-2
	c0.3-0.4,0.6-0.9,0.9-1.4c0.1-0.2,0.2-0.5,0.3-0.7l0.1-0.4c0-0.1,0.1-0.3,0.1-0.3c0.1-0.3,0.1-0.5,0-0.8c0-0.1-0.1-0.3-0.2-0.4
	c-0.1-0.1-0.2-0.1-0.4-0.2c-0.1,0-0.3,0-0.4,0h0l0,0H508c-0.4,0.2-0.9,0.4-1.3,0.6c-0.5,0.3-1,0.6-1.5,1
	C504.3,68.9,503.4,69.8,502.6,70.8z"/>
<linearGradient id="SVGID_7_" gradientUnits="userSpaceOnUse" x1="559.2442" y1="49.2774" x2="553.5042" y2="50.4574" gradientTransform="matrix(0.9883 0.1528 0.1528 -0.9883 -37.1531 6.9381)">
	<stop  offset="0" style="stop-color:#B38A3B"/>
	<stop  offset="6.000000e-02" style="stop-color:#CCAD64"/>
	<stop  offset="0.14" style="stop-color:#EFDF9F"/>
	<stop  offset="0.18" style="stop-color:#FDF3B6"/>
	<stop  offset="0.41" style="stop-color:#B79862"/>
	<stop  offset="0.49" style="stop-color:#C5A55B"/>
	<stop  offset="0.62" style="stop-color:#D9B852"/>
	<stop  offset="0.66" style="stop-color:#DFC364"/>
	<stop  offset="0.8" style="stop-color:#F5E59F"/>
	<stop  offset="0.87" style="stop-color:#FDF3B6"/>
	<stop  offset="0.89" style="stop-color:#EDDC9B"/>
	<stop  offset="0.92" style="stop-color:#D4B972"/>
	<stop  offset="0.95" style="stop-color:#C29F54"/>
	<stop  offset="0.98" style="stop-color:#B79042"/>
	<stop  offset="1" style="stop-color:#B38A3B"/>
</linearGradient>
<path class="st6" d="M517.4,47.2c0.2-1,0.4-1.9,0.6-2.8l0.4-1.4l0.4-1.3c0.1-0.5,0.2-0.9,0.3-1.4c0.1-0.5,0.3-0.9,0.6-1.2
	c0.4-0.3,0.8-0.6,1.2-0.8c0.6-0.3,1.2-0.5,1.8-0.6l0.4,0.2c0.3,0.6,0.5,1.2,0.6,1.8c0,0.5,0,1-0.1,1.5c-0.1,0.4-0.3,0.9-0.7,1.2
	c-0.4,0.3-0.7,0.6-1,1l-0.9,1l-1,1c-0.7,0.7-1.3,1.3-2.1,1.9L517.4,47.2z"/>
</svg>
